<svg xmlns="http://www.w3.org/2000/svg" viewBox="0 0 800 450" fill="none">
  <rect width="800" height="450" fill="#12121a"/>
  <rect x="40" y="40" width="720" height="50" rx="8" fill="#1a1a27"/>
  <circle cx="70" cy="65" r="8" fill="#7c3aed"/>
  <rect x="90" y="58" width="80" height="14" rx="4" fill="#2a2a3d"/>
  <rect x="600" y="55" width="60" height="20" rx="6" fill="#7c3aed" opacity="0.3"/>
  <rect x="680" y="55" width="60" height="20" rx="6" fill="#ec4899" opacity="0.3"/>
  <rect x="40" y="110" width="720" height="300" rx="8" fill="#1a1a27"/>
  <rect x="200" y="160" width="400" height="60" rx="8" fill="url(#grad)"/>
  <rect x="250" y="250" width="300" height="16" rx="4" fill="#2a2a3d"/>
  <rect x="280" y="280" width="240" height="16" rx="4" fill="#2a2a3d"/>
  <rect x="300" y="320" width="100" height="36" rx="8" fill="#7c3aed" opacity="0.4"/>
  <rect x="420" y="320" width="100" height="36" rx="8" fill="#2a2a3d"/>
  <defs>
    <linearGradient id="grad" x1="200" y1="190" x2="600" y2="190" gradientUnits="userSpaceOnUse">
      <stop stop-color="#7c3aed"/>
      <stop offset="0.5" stop-color="#ec4899"/>
      <stop offset="1" stop-color="#06b6d4"/>
    </linearGradient>
  </defs>
  <text x="400" y="430" text-anchor="middle" font-family="system-ui,sans-serif" font-size="16" fill="#9494a8">Portfolio Website</text>
</svg>
